<?xml version="1.0" standalone="no"?>
<!DOCTYPE svg PUBLIC "-//W3C//DTD SVG 20010904//EN"
 "http://www.w3.org/TR/2001/REC-SVG-20010904/DTD/svg10.dtd">
<svg version="1.0" xmlns="http://www.w3.org/2000/svg"
 width="860.000000pt" height="1024.000000pt" viewBox="0 0 860.000000 1024.000000"
 preserveAspectRatio="xMidYMid meet">

<g transform="translate(0.000000,1024.000000) scale(0.100000,-0.100000)"
fill="#000000" stroke="none">
<path d="M2785 10089 c-131 -18 -268 -57 -361 -104 -103 -52 -200 -116 -814
-535 -449 -307 -632 -422 -879 -555 -261 -139 -407 -201 -567 -241 l-105 -27
33 -34 c140 -146 339 -247 521 -264 108 -10 193 -38 288 -94 119 -69 165 -84
361 -115 37 -6 100 -22 140 -36 40 -15 105 -38 143 -51 57 -21 99 -27 230 -33
161 -9 207 -17 344 -64 102 -35 146 -33 286 14 65 22 119 39 120 37 1 -1 19
-42 39 -92 90 -215 152 -306 279 -407 65 -52 86 -75 82 -87 -62 -151 -60 -140
-59 -276 1 -111 4 -143 27 -218 33 -106 109 -261 169 -342 72 -96 225 -239
313 -290 16 -10 16 -13 1 -49 -9 -22 -33 -58 -54 -80 -83 -90 -155 -214 -192
-331 -46 -144 -36 -628 16 -783 42 -128 127 -265 261 -423 l72 -87 -60 -68
c-121 -137 -226 -315 -248 -422 -14 -67 -14 -269 0 -403 18 -182 57 -264 230
-484 121 -155 159 -212 159 -239 0 -12 -21 -48 -45 -81 -77 -100 -106 -247
-85 -420 25 -206 86 -350 205 -484 91 -102 93 -117 34 -215 -65 -107 -71 -134
-71 -286 0 -163 18 -257 68 -359 54 -110 127 -177 267 -244 62 -30 120 -57
130 -60 14 -5 17 -18 17 -69 1 -140 20 -445 30 -480 14 -47 71 -99 101 -91 52
14 74 133 84 458 3 105 8 200 10 211 4 19 13 22 89 26 113 6 190 43 274 132
71 76 114 159 143 276 18 71 21 104 17 210 -5 142 -13 167 -96 294 -29 43 -52
82 -52 87 0 4 42 61 94 126 103 128 172 248 206 358 29 95 37 247 17 341 -30
141 -125 328 -173 340 -13 3 -24 12 -24 18 0 29 68 111 196 238 194 191 234
262 255 460 14 127 5 381 -16 462 -23 88 -60 148 -154 249 -47 51 -98 106
-114 124 l-30 32 154 153 c159 158 208 224 257 348 53 137 75 326 61 525 -16
230 -70 341 -280 583 l-81 93 114 122 c315 338 383 474 394 787 3 80 10 158
16 173 6 16 42 52 84 83 116 88 200 189 254 307 38 84 63 114 102 121 58 10
216 25 483 46 366 28 520 57 622 117 40 23 53 25 200 27 l158 2 109 48 c107
47 190 70 356 100 121 22 195 62 294 159 129 127 193 237 166 287 -10 19 -20
20 -148 18 -163 -2 -172 1 -427 139 -306 165 -593 348 -970 619 -598 430 -742
520 -947 593 -206 72 -481 97 -628 57 -108 -30 -197 -82 -280 -166 -121 -123
-180 -242 -200 -405 -23 -189 26 -372 143 -531 69 -94 71 -100 45 -123 -29
-27 -110 -57 -193 -72 -67 -11 -219 -9 -232 4 -3 4 -7 125 -7 270 l-1 262 49
120 c27 66 53 148 59 182 35 202 -101 417 -295 469 -163 43 -354 -11 -468
-132 -129 -136 -151 -314 -65 -520 68 -164 68 -163 69 -369 1 -207 -5 -236
-59 -271 -29 -19 -119 -44 -159 -44 -46 0 -111 37 -177 100 l-61 57 16 31 c9
17 42 63 74 104 114 141 152 236 152 377 0 201 -91 393 -245 521 -67 55 -192
115 -289 140 -94 24 -272 33 -371 19z m2800 -79 c159 -19 363 -100 584 -234
133 -81 274 -177 563 -383 591 -421 1060 -697 1355 -797 61 -21 119 -47 129
-58 17 -18 17 -22 3 -46 -18 -34 -98 -88 -152 -104 -25 -7 -94 -12 -167 -12
-106 1 -142 6 -240 32 -213 56 -396 146 -625 305 -422 293 -618 465 -700 616
-61 112 -126 145 -104 52 13 -56 10 -159 -6 -230 -52 -217 -262 -427 -448
-446 -34 -3 -126 -10 -205 -14 -78 -4 -145 -11 -148 -14 -4 -3 3 -19 15 -35
27 -39 27 -76 -2 -155 -35 -96 -73 -155 -147 -227 -83 -81 -159 -127 -262
-157 -144 -41 -295 -40 -444 3 l-51 14 -7 287 c-4 157 -5 287 -4 289 2 1 35
-6 73 -17 105 -30 250 -23 324 15 71 36 138 100 200 191 28 40 51 77 51 80 0
4 -31 41 -70 81 -84 89 -122 140 -161 216 -80 158 -76 352 10 485 50 77 171
190 235 218 44 20 115 35 231 49 58 6 81 6 170 -4z m-2473 -24 c147 -28 278
-101 373 -208 76 -85 95 -136 95 -248 -1 -174 -33 -251 -162 -386 -48 -51 -93
-105 -98 -119 -28 -74 -1 -134 118 -257 137 -142 113 -133 306 -109 89 12 166
21 170 21 4 0 6 -118 4 -262 -4 -345 -3 -343 -183 -373 -190 -32 -361 13 -531
138 -104 77 -154 152 -189 286 -22 86 -20 117 10 137 29 19 33 41 8 48 -10 2
-58 8 -108 11 -179 14 -317 76 -440 200 -128 127 -176 237 -193 438 -7 81 -14
113 -26 125 -17 16 -20 15 -49 -22 -80 -98 -132 -146 -260 -242 -273 -206
-680 -461 -942 -590 -193 -95 -279 -118 -440 -118 -131 0 -196 14 -293 63
l-54 28 313 155 c441 219 620 329 1261 774 467 324 758 484 936 514 80 13 295
11 374 -4z m1252 -35 c79 -35 131 -84 168 -159 29 -58 33 -76 33 -147 0 -69
-4 -89 -32 -147 -40 -86 -115 -162 -172 -178 -67 -18 -188 -29 -226 -20 -40 9
-43 11 -138 94 -98 85 -120 128 -125 243 -4 85 -2 98 22 147 31 63 136 166
187 184 57 19 225 9 283 -17z m-116 -773 l152 -12 0 -325 c0 -179 -4 -396 -10
-481 -5 -85 -16 -425 -25 -755 -20 -770 -28 -922 -48 -942 -19 -19 -66 -9
-190 39 -60 23 -80 36 -88 55 -21 56 -30 393 -36 1391 l-6 1042 49 0 c27 0
118 -5 202 -12z m-2057 -166 c23 -53 43 -112 43 -130 1 -32 -5 -39 -109 -114
-178 -129 -541 -359 -663 -420 -178 -90 -309 -108 -459 -63 -52 15 -114 58
-102 69 3 4 31 13 63 21 150 39 424 213 893 567 240 180 268 199 279 183 7 -9
32 -60 55 -113z m4257 -14 c26 -18 88 -67 137 -109 244 -206 819 -599 877
-599 42 0 34 -71 -12 -95 -79 -41 -271 -5 -455 85 -263 129 -599 401 -669 541
-35 71 -32 157 7 207 16 20 60 8 115 -30z m-4033 -299 l95 -91 -148 -115
c-298 -231 -485 -343 -621 -372 -106 -23 -281 -8 -281 23 0 20 39 51 134 106
158 91 323 215 511 385 137 123 177 155 196 155 10 0 61 -41 114 -91z m3820
-8 c17 -10 90 -75 163 -144 142 -133 253 -217 421 -319 57 -34 118 -75 135
-91 30 -28 30 -29 11 -44 -16 -12 -43 -14 -140 -10 -201 9 -308 47 -479 168
-110 78 -299 257 -316 300 -18 41 0 71 72 121 60 42 89 46 133 19z m-3496
-112 c61 -13 101 -42 101 -74 0 -57 -196 -258 -350 -359 -150 -99 -363 -147
-417 -94 -21 21 -6 41 74 103 36 28 137 124 224 215 88 91 176 177 196 193 41
30 86 35 172 16z m3137 -41 c21 -18 76 -85 122 -148 103 -138 189 -231 257
-275 96 -62 105 -92 39 -120 -33 -14 -42 -13 -113 5 -172 44 -241 83 -379 214
-98 93 -166 184 -177 237 -16 74 40 118 152 118 56 1 66 -2 99 -31z m-2930
-260 c84 -118 247 -264 353 -318 113 -57 163 -64 409 -63 l222 1 0 -72 c0 -45
-5 -79 -13 -91 -15 -19 -17 -19 -117 10 -96 27 -280 41 -363 27 -86 -15 -277
-104 -336 -157 -62 -57 -100 -46 -229 63 -109 92 -232 274 -232 343 1 23 13
51 38 86 63 87 192 223 212 223 10 0 34 -22 56 -52z m2773 -184 c111 -117 128
-144 117 -187 -9 -39 -104 -157 -212 -264 -133 -133 -133 -133 -291 -12 -194
148 -399 191 -643 134 -135 -32 -148 -32 -160 1 -12 32 -13 114 -1 133 8 12
51 15 243 15 194 1 244 4 297 19 117 33 197 83 349 214 40 35 87 72 104 83 31
19 32 19 59 -1 15 -10 77 -71 138 -135z m-681 -379 c125 -30 243 -109 338
-227 78 -97 84 -112 84 -231 0 -125 -22 -221 -79 -342 -82 -176 -227 -348
-374 -443 -136 -89 -164 -89 -330 -6 -119 60 -163 89 -182 118 -25 38 -6 60
82 96 258 106 487 301 588 501 34 65 62 221 56 302 -1 23 -15 16 -105 -56 -39
-31 -88 -61 -113 -68 -54 -15 -235 -4 -296 17 -71 25 -187 155 -187 210 0 52
76 104 192 129 84 18 248 18 326 0z m-1295 -30 c83 -22 136 -51 143 -80 17
-68 -59 -166 -173 -222 -65 -32 -86 -37 -161 -41 -128 -6 -155 4 -275 100 -41
33 -52 14 -50 -85 2 -104 19 -198 46 -256 11 -25 51 -76 87 -114 136 -145 325
-243 728 -377 287 -95 458 -164 569 -228 37 -22 104 -58 148 -80 67 -33 97
-57 175 -139 236 -245 276 -338 267 -618 -5 -166 -29 -269 -88 -388 -69 -138
-211 -284 -357 -369 -65 -37 -90 -35 -194 17 -147 74 -201 130 -178 189 5 15
43 62 84 105 87 91 137 166 174 259 22 58 26 82 27 177 0 100 -2 115 -28 166
-38 78 -99 144 -187 202 -41 27 -270 146 -509 263 -476 235 -580 293 -719 397
-238 177 -366 444 -323 669 41 208 222 387 453 448 92 24 259 26 341 5z m846
-349 c75 -61 146 -100 256 -142 36 -14 51 -26 53 -42 2 -15 13 -24 34 -30 48
-12 55 -33 28 -76 -26 -42 -129 -134 -220 -196 -68 -46 -199 -110 -225 -110
-23 0 -48 66 -41 109 7 45 46 84 126 128 126 69 170 97 170 110 0 17 8 18
-106 -17 -54 -17 -112 -31 -128 -33 l-31 -2 -3 183 c-1 100 0 182 3 182 3 0
41 -29 84 -64z m-652 -136 c-7 -175 -14 -206 -48 -203 -25 3 -354 161 -348
167 2 2 32 16 67 30 72 30 137 69 242 144 73 53 74 53 83 30 5 -13 7 -88 4
-168z m-279 -170 c134 -65 269 -153 283 -184 7 -14 9 -32 5 -42 -17 -45 -183
19 -323 125 -79 59 -153 134 -153 154 0 21 88 -4 188 -53z m-48 -885 c223
-112 238 -139 145 -263 -74 -99 -100 -181 -92 -301 9 -146 71 -313 149 -397
47 -51 211 -157 424 -275 174 -96 383 -228 541 -341 80 -57 124 -97 155 -139
54 -75 128 -208 164 -296 26 -63 28 -77 27 -203 -3 -325 -113 -560 -330 -701
-88 -58 -121 -59 -208 -10 -87 49 -164 115 -181 158 -18 41 -7 72 46 129 82
89 135 240 128 364 -7 118 -46 190 -146 271 -104 84 -319 225 -532 349 -214
125 -323 205 -427 313 -133 138 -239 316 -280 468 -26 99 -24 406 5 510 23 86
64 171 114 240 54 74 151 189 160 189 5 0 66 -29 138 -65z m565 -284 c97 -47
127 -78 135 -142 8 -54 -4 -498 -15 -594 -13 -112 -35 -126 -126 -79 -62 31
-75 59 -89 186 -13 127 -30 429 -30 538 0 129 19 142 125 91z m-225 -126 c27
-32 38 -446 14 -508 -11 -31 -37 -14 -70 45 -52 91 -74 162 -74 232 0 88 32
187 71 220 35 30 42 31 59 11z m565 -110 c18 -19 43 -56 56 -82 50 -101 21
-249 -65 -332 l-35 -34 -12 29 c-14 33 -19 382 -6 427 10 36 23 34 62 -8z
m-944 -1176 c56 -19 296 -167 324 -200 30 -36 28 -48 -20 -129 -51 -85 -68
-156 -63 -269 3 -80 8 -106 31 -153 52 -106 238 -269 472 -413 353 -218 513
-413 544 -662 26 -206 -42 -386 -204 -542 -79 -76 -126 -106 -182 -117 -42 -8
-87 32 -102 90 -25 99 -9 254 34 336 81 153 -95 369 -440 543 -234 118 -472
339 -560 522 -145 299 -147 579 -4 844 50 94 85 140 113 151 11 5 21 9 22 9 1
1 16 -4 35 -10z m676 -411 c16 -29 18 -63 18 -288 0 -259 -5 -310 -29 -310
-26 0 -98 62 -113 98 -16 39 -31 269 -32 490 l-1 112 70 -35 c49 -25 75 -45
87 -67z m-226 -139 c16 -31 -10 -209 -31 -209 -11 0 -30 83 -30 134 0 80 35
123 61 75z m427 -155 c-5 -86 -29 -147 -50 -126 -14 14 -5 177 11 217 12 29
13 30 28 10 11 -15 14 -39 11 -101z m-686 -927 c46 -24 102 -55 126 -71 l44
-27 -7 -142 c-8 -165 -2 -197 53 -283 58 -88 160 -187 322 -309 369 -280 475
-455 414 -688 -28 -108 -141 -299 -195 -328 -24 -12 -24 -12 2 114 16 77 20
129 17 212 -4 146 -28 196 -147 316 -81 81 -95 90 -236 158 -82 40 -187 97
-233 127 -164 110 -326 288 -371 409 -11 29 -25 92 -32 140 -20 143 14 330 72
391 33 35 75 31 171 -19z m427 -255 c36 -36 51 -117 51 -278 0 -143 -10 -169
-54 -140 -15 9 -31 28 -36 41 -16 42 -33 238 -26 313 8 104 17 112 65 64z
m-135 -34 c8 -32 6 -99 -4 -123 -7 -18 -10 -16 -24 17 -19 44 -20 55 -5 97 13
37 24 40 33 9z m-154 -810 c67 -34 67 -72 1 -155 -93 -118 -111 -201 -91 -412
7 -78 11 -144 8 -146 -9 -9 -90 115 -110 169 -30 76 -47 188 -48 304 0 118 12
150 79 220 34 35 47 42 79 42 21 0 58 -10 82 -22z m290 -324 c5 -71 13 -318
16 -549 9 -581 -10 -778 -36 -370 -14 224 -25 944 -16 1020 11 87 24 52 36
-101z m-138 49 c17 -50 19 -505 1 -543 -10 -24 -13 -21 -52 60 -53 111 -72
186 -73 291 0 86 15 141 58 207 23 34 50 28 66 -15z m360 -101 c8 -24 13 -88
13 -182 0 -156 -9 -191 -57 -224 -37 -26 -48 -3 -54 110 -7 122 8 327 25 348
12 14 15 14 36 0 13 -9 30 -32 37 -52z"/>
<path d="M4337 9863 c-13 -12 -7 -40 19 -97 23 -51 25 -60 14 -110 -14 -66
-60 -141 -101 -164 -17 -9 -40 -24 -51 -33 -20 -14 -20 -16 -3 -33 46 -46 206
39 258 138 31 60 31 176 -1 228 -35 56 -111 96 -135 71z"/>
<path d="M4810 7645 c-17 -21 -5 -33 51 -49 44 -13 56 -14 84 -2 76 32 47 66
-56 66 -46 0 -70 -4 -79 -15z"/>
<path d="M3463 7626 c-36 -16 -42 -36 -17 -57 12 -10 24 -10 60 -1 24 7 55 12
68 12 30 0 54 26 38 42 -18 18 -113 20 -149 4z"/>
</g>
</svg>
