<?xml version="1.0" standalone="no"?>
<!DOCTYPE svg PUBLIC "-//W3C//DTD SVG 20010904//EN"
 "http://www.w3.org/TR/2001/REC-SVG-20010904/DTD/svg10.dtd">
<svg version="1.0" xmlns="http://www.w3.org/2000/svg"
 width="400.000000pt" height="400.000000pt" viewBox="0 0 400.000000 400.000000"
 preserveAspectRatio="xMidYMid meet">

<g transform="translate(0.000000,400.000000) scale(0.100000,-0.100000)"
fill="#000000" stroke="none">
<path d="M1330 3925 c-59 -19 -123 -58 -403 -247 -239 -162 -401 -254 -497
-283 -30 -9 -61 -19 -69 -21 -22 -7 34 -60 94 -89 27 -13 79 -29 113 -34 35
-6 83 -22 107 -36 24 -14 78 -32 119 -39 41 -8 85 -20 98 -27 12 -6 60 -16
107 -20 46 -5 109 -17 138 -26 53 -17 87 -14 154 12 13 5 22 -7 40 -52 15 -37
43 -78 77 -113 53 -55 53 -55 41 -92 -7 -21 -10 -63 -7 -100 8 -93 47 -169
130 -251 37 -37 68 -69 68 -72 0 -2 -18 -28 -39 -56 -60 -80 -75 -140 -68
-276 5 -98 9 -122 35 -176 16 -34 48 -84 70 -112 l42 -49 -24 -26 c-14 -14
-41 -52 -60 -84 -36 -59 -36 -61 -36 -170 0 -130 8 -152 94 -265 31 -41 56
-79 56 -84 0 -5 -10 -23 -22 -40 -20 -28 -23 -44 -22 -127 1 -107 13 -142 68
-209 20 -24 36 -47 36 -52 0 -6 -10 -29 -22 -52 -17 -32 -22 -58 -21 -113 1
-115 47 -192 138 -230 22 -9 43 -21 47 -28 4 -6 8 -50 8 -98 0 -101 11 -138
40 -138 25 0 29 16 38 155 l7 110 40 6 c77 10 125 57 151 146 21 72 13 143
-21 194 -14 21 -25 42 -25 45 0 4 16 26 35 50 95 116 116 235 61 347 -15 31
-32 57 -37 57 -25 0 -3 37 56 95 90 88 105 123 105 258 0 124 -8 147 -77 219
l-46 47 64 63 c36 35 75 84 87 110 31 68 45 174 32 255 -13 79 -25 104 -88
180 l-49 58 63 69 c93 102 127 172 132 273 l4 82 50 41 c27 23 63 66 79 96 17
30 34 56 39 59 4 2 84 11 178 20 110 9 193 22 231 35 33 11 83 20 111 20 31 0
73 9 108 24 31 13 83 29 114 35 87 16 131 45 181 121 32 47 23 60 -39 60 -95
0 -185 52 -716 414 -167 115 -233 140 -363 141 -74 0 -97 -4 -131 -22 -140
-75 -183 -260 -92 -397 16 -26 28 -52 25 -60 -7 -17 -84 -38 -128 -34 l-34 3
-3 104 c-2 89 1 113 19 158 40 100 13 200 -65 237 -80 38 -191 5 -233 -70 -29
-51 -29 -102 2 -189 26 -73 33 -164 15 -209 -6 -17 -21 -28 -45 -35 -43 -12
-71 -3 -104 33 -23 24 -23 26 -7 48 66 91 70 101 74 162 7 115 -65 223 -175
260 -58 20 -191 20 -253 1z m277 -51 c133 -65 151 -193 43 -310 -22 -24 -40
-50 -40 -57 0 -16 48 -84 78 -111 19 -16 31 -18 92 -12 l70 6 0 -103 c0 -69
-4 -109 -13 -121 -16 -23 -116 -32 -173 -17 -51 14 -119 62 -143 102 -24 39
-37 102 -22 107 26 9 7 21 -41 27 -72 10 -108 26 -158 72 -47 42 -79 102 -80
148 0 41 -10 75 -22 75 -5 0 -21 -14 -36 -32 -53 -63 -314 -237 -460 -306 -64
-30 -86 -36 -146 -36 -64 -1 -136 17 -136 33 0 3 60 35 133 71 86 42 222 125
391 238 261 174 364 234 434 252 63 16 168 4 229 -26z m1005 7 c31 -12 112
-59 180 -105 68 -45 200 -134 293 -197 177 -119 300 -188 388 -218 64 -22 70
-47 17 -73 -104 -52 -276 7 -496 170 -110 82 -162 131 -207 196 -10 14 -21 26
-25 26 -4 0 -7 -26 -8 -58 0 -70 -27 -126 -85 -175 -44 -38 -57 -42 -159 -52
l-65 -6 0 -42 c-1 -122 -158 -220 -300 -188 l-55 12 0 114 0 113 40 -10 c74
-19 138 9 191 83 l21 30 -36 39 c-69 77 -95 170 -66 244 14 37 84 104 122 115
53 16 185 7 250 -18z m-595 8 c93 -35 115 -142 45 -220 -21 -23 -38 -31 -77
-35 -44 -5 -54 -3 -87 23 -70 54 -86 116 -47 179 35 58 100 78 166 53z m22
-314 c7 -8 -23 -963 -31 -971 -12 -12 -98 18 -109 37 -6 11 -12 208 -16 486
l-6 466 78 -6 c43 -4 81 -9 84 -12z m-856 -72 l17 -42 -63 -44 c-105 -75 -205
-137 -263 -164 -45 -21 -67 -24 -115 -21 -38 3 -66 10 -76 21 -16 16 -16 17 0
17 42 0 207 102 377 234 94 72 95 72 123 -1z m1657 10 c14 -9 51 -38 82 -64
46 -38 238 -170 311 -214 32 -19 3 -40 -53 -38 -68 2 -193 64 -290 146 -85 71
-117 119 -106 160 7 31 22 34 56 10z m-1573 -117 l36 -33 -94 -71 c-119 -89
-187 -122 -256 -122 -28 0 -55 4 -58 10 -3 5 14 21 37 36 83 51 119 77 196
145 42 38 83 68 90 69 7 0 29 -15 49 -34z m1514 -22 c34 -38 157 -134 212
-166 75 -44 57 -63 -44 -47 -34 5 -76 17 -93 26 -46 23 -151 109 -171 139 -16
25 -16 27 6 50 29 31 60 30 90 -2z m-1388 -25 c24 -6 37 -16 37 -27 0 -25
-118 -135 -172 -160 -53 -24 -129 -30 -127 -9 2 14 202 207 215 207 5 0 26 -5
47 -11z m1225 -16 c10 -10 40 -46 66 -80 26 -34 60 -70 76 -80 68 -40 26 -66
-62 -37 -67 22 -178 126 -178 166 0 46 60 64 98 31z m-1109 -142 c83 -86 124
-104 246 -107 l100 -3 0 -28 c0 -25 -3 -28 -30 -26 -16 2 -66 4 -110 5 -71 3
-86 0 -130 -25 -27 -15 -58 -33 -67 -39 -13 -10 -24 -7 -57 16 -42 29 -111
120 -111 146 0 17 80 120 94 120 4 0 34 -26 65 -59z m1040 -25 c66 -67 65 -80
-18 -167 l-59 -62 -30 19 c-128 81 -123 79 -207 79 -44 0 -93 -2 -110 -5 -28
-5 -30 -2 -33 26 l-3 32 108 4 c121 4 151 16 237 87 26 23 51 41 55 41 4 0 31
-24 60 -54z m-245 -157 c48 -13 134 -92 144 -133 11 -43 -1 -122 -29 -181 -28
-60 -144 -181 -184 -191 -23 -6 -44 0 -94 27 -36 19 -67 39 -69 46 -2 7 27 27
65 46 130 66 208 157 220 258 l6 53 -46 -34 c-43 -30 -50 -32 -102 -27 -31 3
-68 13 -81 22 -33 22 -51 61 -38 83 23 37 130 53 208 31z m-511 -10 c46 -12
56 -32 34 -67 -36 -60 -152 -83 -204 -42 -36 28 -43 25 -43 -17 0 -64 18 -108
61 -150 56 -56 110 -83 284 -143 250 -86 370 -167 426 -285 23 -50 25 -161 4
-232 -30 -100 -140 -209 -200 -198 -40 7 -105 51 -105 71 0 9 16 35 36 56 73
81 95 186 54 253 -27 44 -78 75 -298 183 -101 50 -207 109 -237 131 -162 122
-180 304 -41 399 75 50 149 64 229 41z m398 -179 c18 -8 42 -23 55 -35 l24
-22 -50 -47 c-49 -46 -126 -89 -142 -80 -4 3 -8 16 -8 30 0 23 9 31 96 92 17
12 17 12 -6 7 -14 -3 -37 -8 -52 -11 l-28 -6 0 71 0 71 40 -29 c21 -15 54 -34
71 -41z m-333 -9 c-2 -39 -6 -73 -10 -76 -3 -4 -36 9 -73 27 l-66 34 68 41
c37 23 72 42 77 42 4 1 6 -30 4 -68z m-84 -79 c67 -36 97 -64 84 -78 -12 -11
-72 15 -122 54 -91 69 -70 83 38 24z m26 -377 c11 -13 11 -20 2 -33 -56 -80
-64 -138 -31 -226 24 -67 53 -92 192 -171 182 -104 268 -168 304 -227 45 -75
53 -101 53 -173 0 -114 -50 -216 -127 -262 -35 -20 -49 -24 -66 -16 -34 16
-87 63 -87 78 0 8 14 36 31 63 36 59 46 115 29 167 -14 43 -81 96 -240 189
-135 79 -220 157 -262 244 -31 62 -33 73 -33 172 0 115 6 133 73 222 l35 47
57 -29 c31 -16 62 -36 70 -45z m161 -70 c43 -23 50 -53 44 -174 -9 -161 -15
-173 -65 -133 -20 16 -23 32 -32 155 -13 174 -10 184 53 152z m-91 -145 c0
-63 -4 -100 -10 -100 -14 0 -49 78 -50 108 0 35 27 92 44 92 13 0 16 -16 16
-100z m232 29 c12 -22 17 -44 13 -63 -6 -33 -31 -76 -44 -76 -12 0 -22 98 -14
143 7 45 19 44 45 -4z m-326 -465 c82 -49 81 -48 56 -99 -25 -53 -29 -123 -8
-164 20 -39 81 -91 183 -158 109 -72 158 -120 189 -186 45 -98 28 -193 -51
-275 -60 -61 -99 -70 -115 -26 -14 36 -12 64 6 122 14 43 15 56 4 82 -17 41
-82 97 -169 144 -104 57 -183 133 -222 212 -27 54 -33 81 -37 149 -4 74 -2 89
22 141 29 63 52 94 71 94 6 0 38 -16 71 -36z m189 -119 c23 -22 25 -31 25
-122 0 -116 -7 -132 -41 -104 -22 18 -24 27 -27 135 -4 126 0 135 43 91z m-75
-89 c0 -19 -4 -38 -10 -41 -6 -4 -10 10 -10 34 0 23 5 41 10 41 6 0 10 -15 10
-34z m170 -28 c0 -35 -14 -66 -22 -52 -8 14 3 84 13 84 5 0 9 -15 9 -32z
m-255 -376 l50 -27 -3 -55 c-6 -96 16 -129 174 -255 144 -116 174 -200 109
-311 -45 -77 -54 -75 -48 9 3 41 3 87 -1 101 -11 44 -76 107 -141 136 -79 36
-174 107 -207 156 -50 74 -61 192 -22 252 18 28 28 28 89 -6z m172 -159 c3
-28 2 -64 -1 -79 -6 -24 -9 -26 -22 -12 -17 17 -31 126 -20 154 12 30 36 -6
43 -63z m-67 32 c0 -8 -4 -17 -10 -20 -6 -4 -10 5 -10 20 0 15 4 24 10 20 6
-3 10 -12 10 -20z m-66 -291 c23 -9 20 -38 -9 -80 -22 -32 -25 -48 -25 -118
l0 -81 -20 25 c-24 32 -40 95 -40 158 0 76 40 117 94 96z m116 -275 c1 -90 1
-193 -1 -229 -2 -60 -3 -58 -9 35 -11 142 -11 405 0 379 4 -11 9 -94 10 -185z
m-56 165 c9 -25 7 -202 -3 -208 -11 -7 -38 59 -47 112 -4 24 0 51 10 75 16 39
30 47 40 21z m136 -33 c23 -43 8 -171 -20 -171 -6 0 -10 41 -10 95 0 93 9 115
30 76z"/>
<path d="M2015 3851 c-3 -5 0 -21 6 -35 16 -34 4 -73 -34 -107 l-31 -29 26 0
c60 0 116 88 89 139 -14 25 -48 45 -56 32z"/>
<path d="M2200 2981 c0 -11 38 -21 56 -14 26 10 14 23 -21 23 -19 0 -35 -4
-35 -9z"/>
<path d="M1665 2971 c-3 -5 -2 -12 2 -14 12 -8 63 4 63 14 0 12 -57 12 -65 0z"/>
</g>
</svg>
